<svg xmlns="http://www.w3.org/2000/svg" width="170.081" height="85.04" viewBox="0 0 170.081 85.04">
  <radialGradient id="a" cx="42.519" cy="42.52" r="42.519" gradientUnits="userSpaceOnUse">
    <stop offset="0" stop-color="#F2CB72"/>
    <stop offset="1" stop-color="#EFBC32"/>
  </radialGradient>
  <path fill="url(#a)" d="M0 0h85.038v85.04H0z"/>
  <path fill="#6C1011" d="M61.777 36.27s4.994 2.583 9.71.43c0 0-4.868.993-9.71-.43zm6.62 12.642s3.003.46 3.216-.047c0 0-.3-.33-3.217.047zm1.936-1.027s1.824.377 1.953-.04c0 0-.182-.266-1.953.04zm-10.255.682s-3.367-.59-7.13-1.663c0 0 2.642 1.425 7.13 1.663zm-13.756 11.52c3.04 1.17 10.258 3.276 21.132 2.58 0 0-14.485-.915-21.106-2.75-.44-.194-.623-.376-.88-.462-.318-.104-1.09-.262-1.403-.227 0 0 .74.402 1.278.635.235.104.58.173.98.223zm15.52-7.987s-8.115-.77-16.79-3.906c0 0 6.534 3.26 16.79 3.906zm-1.115-1.838s-6.293-.598-13.018-3.03c0 0 5.39 2.708 13.017 3.03zm7.428 10.604s-14.55-.326-23.502-3.314c0 0 8.16 4.26 23.502 3.314zm-1.547-4.873s-10.112.488-21.77-2.797c0 0 9.055 4.01 21.77 2.797zm-21.75-1.25s9.513 4.057 22.46 2.703c0 0-11.536.373-22.46-2.703zm13.13-.315c-3.144-.455-7.712-1.316-13.45-2.947 0 0 3.75 1.91 12.428 2.948 2.24.396 7.577 1.17 11.445.363 0 .002-5.158.082-10.422-.362zM44.86 56.084s7.9 4.133 21.662 2.883c0 0-15.5-.297-21.66-2.883zm1.785 6.055c3.205 1.19 10.01 3.134 20.52 2.462 0 0-13.78-.89-20.523-2.672-.282-.21-.672-.43-.958-.506-.384-.102-1.27-.227-1.575-.22 0 0 .737.386 1.423.67.266.113.72.253 1.112.265zm15.857-9.952s8.167.94 9.483-.002c0 0-2.392.172-9.483.002zm4.542-2.178s4.204.414 4.374-.05c0 0-.042-.393-4.374.05zM23.47 41.48c.852-.472 1.36 2.23 1.36 2.23s.01-6.18-2.832-4.902c-1.58.707.054 6.32 2.83 6.264 0 0-2.94-2.722-1.36-3.593zm48.045 9.653s.162-.428-6.5.066c0 0 6.404.406 6.5-.067zm-11.67 2.192c-3.257-.44-8.937-1.406-15.266-3.39 0 0 4.527 2.513 16.236 3.562 1.854.287 5.962.744 9.142-.172 0 0-4.876.384-10.113 0zm5.187 25.342c-4.187-.146-7.472-.64-9.92-.916-3.8-.43-6.122-.507-6.122-.507s4.047 1.025 6.073 1.342c3.018.47 6.37.498 9.752.604 1.626.048 3.256.063 4.862.056 3.1.182 8.926.352 15.36-.338v-.648l-10.987.504c-3.367.037-6.383-.002-9.018-.097zm-2.407 1.324c-3.1-.134-5.592-.55-7.516-.74-3.444-.35-5.807-.524-5.807-.524s3.876 1.035 5.676 1.32c2.33.37 4.887.455 7.513.584 3.32.162 6.752.162 9.988.08 2.465.17 6.902.266 12.558-.514v-.563c-3.465.053-8.68.188-12.275.535-3.91.022-7.284-.052-10.138-.177zM58.8 84.18c-1.415-.102-2.616-.43-3.608-.535-2.455-.252-4.256-.322-4.256-.322s2.898.914 4.177 1.15c1.142.215 2.35.168 3.602.307.962.107 1.955.19 2.96.26h22.233c.37-.03.748-.066 1.13-.107v-.653c-2.76.02-6.24.1-8.998.34-7.55.086-13.252-.15-17.24-.44zM33.38 53.407c.383 1.09 2.28 1.143 2.344-.217.056-1.145-1.198-.928-1.198-.928s-.71-.162-.326-.924c0 0-1.2.98-.82 2.07zM60.91 81.375c-2.402-.127-4.357-.5-5.887-.646-2.91-.282-5.16-.415-5.16-.415s3.58.96 5.118 1.195c1.797.275 3.742.256 5.756.39 4.223.286 8.753.304 12.897.204 2.334.14 6.292.234 11.407-.17v-.674c-3.72.006-8.456.086-11.775.395-4.982.015-9.086-.108-12.354-.28zm-8.935 3.665h2.066c-1.603-.152-2.72-.215-2.72-.215s.262.088.653.215zm17.52-80.166S63.777 4.112 62.25.298c0 0 .598 4.63 7.244 4.576zm-9.53 77.86c-2.037-.124-3.707-.487-5.025-.618-2.574-.262-4.518-.34-4.518-.34s3.135.914 4.514 1.146c1.542.262 3.206.236 4.94.38 4.25.355 8.918.396 13.223.294 2.25.158 6.436.297 11.94-.205v-.612c-3.284-.004-7.625.05-10.923.31-5.89.03-10.588-.134-14.152-.353zm5.746-7.058c-1.235-.047-3.287.387-4.576-.182-.988-.428-2.273-.457-4.603-.676-6.314-.59-8.515-.773-8.515-.773 1.936.574 4.56 1.395 7.395 1.73 2.36.276 4.414.597 7.023.456 1.128-.335 3.94-.007 4.948.01 5.74.093 11.228-.08 15.144-.265.43.076 1.258.186 2.514.213v-.707c-.81.087-1.572.187-2.242.3-7.048.146-12.308.082-17.087-.104zm12.772-48s-.935-.25-1.722-.687c-.44-.244-1.203-.34-1.697-.223 0 0 .576.162 1.475.626.466.24 1.16.424 1.944.283zm2.43 23.862s1.272.258 2.595.357c-.338.318-.847.586-1.857.635-2.62.13-3.09-.904-4.638-1.46-1.47-.532-2.92-.687-3.308-.173-.105.143-.076.252.008.35-1.02.03-2.02-.318-2.02-.318.97.892 2.11.933 2.605.9.006.067-.008.142-.078.228-.388.473-2.235-.043-2.235-.043s.945 1.074 2.105 1.115c1.16.045 1.72-.47 2.708 0 .986.473 1.29 1.186 1.714 1.887.635 1.043 1.72.39 2.234.992.078.09.156.18.236.27-1.847.722-2.882-.296-2.882-.296.576 1.918 2.92 1.07 3.414.867.23.24.393.403.393.403-.508.043-1.174.627-1.55.863-2.376.748-2.467-.963-4.885-1.03-2.063-.054-3.067 1.157-4.18 1.542-1.117.387-2.137.447-3.61.086l-1.374 1.29c5.647 1.11 5.593-.13 8.083-.13 2.492 0 2.75.986 4.296 1.072 1.546.088 3.003-.732 4.12-.604.465.053.928.213 1.385.38h-.048c.096.07.168.29-.207.317-1.37.345-2.02.456-3.35.647 0 0 1.527.092 3.725-.113.457.16.107.75-.213.83-1.674.252-3.625.31-5.433.28 0 0 2.037.565 5.19.31.618 0-.05.64-.372.695-3.828.72-9.637-.374-9.637-.374 2.632 1.104 7.01 1.15 8.402 1.045 1.506-.12-.73.726-3.72.692-1.134-.068-2.496-.197-4.034-.402-1.068-.143-3.402-.535-3.402-.535.99.586 5.015 1.703 5.015 1.703-1.053.61-5.708.277-5.708.277 2.494.72 5.602.857 5.602.857s.84.018 2.602.047c2.62.192 4.75.427 6.433.534v-9.262c-.326-.205-.678-.396-1.07-.547-.438-.17-.674-.455-.768-.8.414.036 1.082.15 1.838.476v-.8c-.607-.215-1.193-.287-1.86-.293.042-.314.155-.65.323-.988.363.026.91.1 1.537.272v-.69c-.396-.075-.797-.118-1.223-.134.162-.242.344-.475.537-.693.138.002.378.012.685.043v-.543c-.064-.002-.13-.008-.195-.008.066-.06.13-.11.195-.164V50.65c-.37.048-.607.183-.793.36-.49.12-2.188.528-3.33.528zm-2.217.925s1.7 1.066 4.088.348c0 0-2.067 2.062-4.088-.347zm-25.32 17.875c.72-.14 2.373.348 3.057.45 2.854.42 5.205.54 9.157.29 0 0-4.204-.23-9.372-.893-.808-.104-2.66.025-3.5-.467-.593-.29-1.357-.473-2.63-.766-1.778-.406-3.03-.613-4.178-.748 0 0 1.813.97 4.088 1.61.93.263 2.61.647 3.377.524zm-2.257-2.066c.64-.137 2.056.346 2.865.496 3.1.574 6.54.945 11.477.63 0 0-5.636-.292-11.304-1.103-.846-.12-2.673-.084-3.408-.502-.62-.36-1.076-.54-2.057-.78-.733-.18-2.06-.423-3.038-.44 0 0 1.432.83 2.992 1.336.653.21 1.935.423 2.474.362zm-1.834-2.01c.81-.035 2.317.514 3.153.703 3.293.744 7.062 1.23 13.022.848 0 0-7.176-.357-13.28-1.363-.84-.14-2.653-.238-3.193-.59-.374-.266-.887-.54-1.308-.65-.69-.18-2-.324-2.63-.268 0 0 1.313.627 2.45 1.043.475.174 1.275.287 1.784.277zm6.904 6.135c.94-.12 2.28.332 3.12.408 2.32.207 4.247.23 7.118.05 0 0-2.405-.09-7.203-.65-.627-.073-2.853.192-4.01-.442-1.156-.498-2.055-.7-3.506-.982-2.147-.415-4.04-.513-5.066-.685 0 0 2 1.043 5.003 1.783 1.262.31 3.306.67 4.545.52zm2.717 1.877c.864-.19 1.84.172 2.733.203 2.546.098 5.513.104 8.957-.027 0 0-3.855-.094-9.267-.484-.73-.053-2.225.156-3.293-.22-1.015-.323-2.217-.54-4.26-.833-2.705-.387-5.353-.674-6.404-.758 0 0 2.874 1.166 5.69 1.623 1.556.252 3.63.635 5.845.496zm26.133-1.022v-.68c-5.656.158-8.823.457-8.823.457 3.315.168 6.25.226 8.823.222zm-37.1-9.058c.702 0 1.95.494 2.78.71 3.79.978 9.164 1.866 17.124 1.382 0 0-9.696-.45-16.822-1.73-.812-.142-2.714-.347-3.22-.645-.4-.31-.873-.466-1.25-.57-.473-.136-1.47-.25-1.93-.243 0 0 1.054.55 1.898.87.37.14.916.18 1.42.227zm37.1-56.023v-.373c-.99.012-2.085.06-3.314.165 0 0 1.318.03 3.314.21zM79.96 77.39c-3.554.16-6.746.237-9.718.204-5.925-.6-4.18-.44-8.797-.723-6.884-.42-12.958-1.32-12.958-1.32s5.572 1.665 8.89 1.962c10.174.914 18.944.57 24.52.12.793.048 1.83.067 3.142.005v-.87c-1.92.14-3.772.337-5.108.614l.028.01zM58.838 30.645c-.48-.057-3.322-.35-5.07.066l4.016.516c-1.918.89-3.334.683-3.334.683s1.8 1.218 3.443 1.07c0 0 3.813-4.248 8.334-4.303 4.52-.055 5.827 2.832 5.827 2.832s-2.56-1.636-5.882-1.255c-3.324.38-6.918 2.78-6.918 2.78s1.688-.11 2.45.544c.763.653 3.788 1.673 5.775 1.196 1.906-.457 4.528-1.41 4.905-.424-1.044.287-2.5 1.682-4.928 1.742 0 0 1.737.21 3.46-.16 1.112-.14 3.996-.443 4.343-.41 0 0-1.34-.234-2.544-.275-.426-.015.357-.493.668-.522.008 0 .01-.008.016-.012.857-.086 2.84-.28 3.364-.316 0 0-.742-.293-2.415-.328-.53.02.06-.748.69-.79.94-.015 2.487-.042 3.006-.08 0 0-.724-.386-2.265-.552-.563-.037-1.035-.77-.634-.768 1.613-.025 4.044-.133 4.044-.133-.682-.23-2.804-.5-3.855-.606-.33-.016-.393-.898.412-.873.75.024 2.265.1 2.265.1-.623-.23-1.43-.52-1.97-.754-.756-.355-.12-.537.402-.582.348-.02.568-.068.764-.158-1.47-.455-4.032-2.58-7.63-2.58-.705 0-2.14.264-3.18.28-1.762.024-3.148-.012-6.564.602 0 0 7.935-.106 9.884.262.29.41.473.852-.148.797l-.373-.04c-.817-.114-1.567-.175-2.258-.196-2.647-.175-6.56-.257-10.178.36 0 0 2.88.066 5.963.15-.715.22-1.318.492-1.826.775-.843-.098-2.91-.23-6.07.205l5.036.445c-.254.176-.482.344-.688.486-.114.082-.227.154-.34.226zm3.642 2.523s.494-.397 1.4-.667c.572-.17.95-.035.95-.035s.034.71-.977.646c1.067 1.178 3.908.77 3.908.77s-2.65 1.147-5.28-.715zm5.937.456c-.305 0-.246-.22-.246-.492s-.058-.49.247-.49c.3 0 .913.22.913.49s-.612.492-.913.492zm9.655-16.002s3.066.07 6.966.642v-.624c-1.684-.208-3.94-.278-6.966-.018zm4.44 16.22s1.056.146 2.526.59v-.665c-.7-.07-1.533-.062-2.527.075zM45.2 47.305s1.317-2.426-1.09-4.41c-1.852-1.524-2.725-3.052-2.725-3.052s.273 1.473 2.18 3.38c1.307 1.308 1.067 1.733.6 2.122-.328.275-.6-1.414-1.906-2.232-.662-.414-1.58-1.525-2.07-2.506 0 0 .328 2.125 1.472 3.105 1.052.903 1.58 2.124 1.58 2.343 0 0-1.58-.22-2.616-.98 0 0 1.688 2.343 4.575 2.232zM85.037 74.67v-.633c-6.51.16-13.502.418-13.502.418 5.493.348 10.01.346 13.502.215zm0-54.46v-.444c-1.156-.103-2.47-.165-4.002-.156 0 0 1.633.168 4.002.6zm0 7.77v-.547c-.99 0-2.103.053-3.393.192 0 0 1.372.076 3.393.357zm-2.86 8.8s1.216.162 2.86.69v-.724c-.766-.114-1.7-.13-2.86.033zm.108 2.933s1.162.155 2.752.658v-.69c-.746-.108-1.646-.12-2.752.033zm.008-4.398s1.158.154 2.744.654v-.686c-.746-.1-1.642-.114-2.744.032zM28.86 12.228c.65 1.303.2 2.25-.012 2.584.924-1.048 1.536-.785 1.536-.785-.544.6-.87 1.143-1.633 3.27-.762 2.122-2.777 4.028-2.777 4.028 3.27-1.906 3.758-4.903 4.41-6.047.655-1.144 2.072-1.47 2.072-1.47-.056.926.762 1.962.762 1.962-.654-1.58 1.144-4.14 1.144-4.14-2.885 3.32-5.5.598-5.5.598zm6.59-6.7c-1.25 2.56-3.267 5.012-5.665 3.32 0 0 2.18 2.506 4.685-.543 2.505-3.05 1.906-3.65 3.54-3.976 0 0-1.36 2.123-.054 5.174 0 0-.763-3.486 1.634-6.155 0 0-2.888-.382-4.14 2.177zM48.142 1.17s-1.47 4.575-3.268 5.99c-1.798 1.418-4.74 2.943-3.377 5.34 0 0-.163-1.472.817-1.96 0 0-.382 1.523.98 2.505 0 0-.272-2.45.817-3.76 1.09-1.307 3.814-4.03 4.032-8.115zm36.765.395C83.51 3.678 81 5.563 77.227 5.145c-1.73-.19-4.793-1.307-5.338-2.068 0 0 1.142 1.525 3.215 2.124 2.07.6 2.068 1.472.107 1.525-1.96.055-2.832-.926-4.412-.817-1.578.11-2.504 1.092-4.302.928s-4.193-1.47-4.467-4.14c0 0-4.54.376-6.325-2.696h-.438c.237 1.883 1.06 5.23 3.933 6.454 0 0-1.09-1.362.273-1.96 0 0 2.287 2.286 4.52 2.722 0 0-3.377 2.234-7.08-.98 0 0 1.307 2.288 3.486 2.724 0 0-5.23 1.743-6.702-3.267 0 0-.49 5.23-3.322 5.83 0 0 0-1.093.71-2.072.654-.908 2.247-4.54 2.692-9.45h-.156c-.53 2.45-1.854 8-3.246 9.18-1.798 1.523-2.614 3.05-1.905 4.792 0 0-.927-.87-.872-2.342 0 0-.763 2.45-.38 3.977 0 0-1.744-1.962-1.035-4.632.38-2.015 2.995-1.852 3.812-5.392 0 0-1.253 2.343-2.996 2.996 0 0 2.832-2.887 2.832-6.81 0 0-.708 3.813-3.866 6.48-3.16 2.67-1.798 4.74-1.798 4.74s.055-1.962 1.307-2.67c0 0-.817 3.323.817 5.23 0 0-1.416-.653-1.853-1.523 0 0-.108 5.555 8.333 3.703 0 0-5.472 2.852-10.13-.98-3.378-2.778-3.867-4.63-3.596-6.646 0 0-.545 1.25-1.688 2.016-1.145.763-4.087 2.887-.49 5.61 0 0-1.2-1.525-.764-2.724 0 0 .707 2.124 2.45 3.16 0 0-1.58-2.343-1.144-3.54 0 0 1.58 3.54 3.76 4.574 0 0-1.253 0-2.287-.71 0 0 .815 1.2 2.015 2.02 0 0-4.25 1.632-7.408-3.98 0 0-1.036.49-1.58 1.36 0 0 1.09-.924 1.69 0 .6.93.38 1.582-.383 2.236-.763.652-3.16 1.144-5.176 3.648-1.004 1.248-2.396 3.168-1.962 6.59.383 2.998 1.635 5.718 3.704 7.41 0 0-4.662-.795-6.753-6.156-1.253-3.214-1.47-7.026 2.45-11.385 0 0-3.214-1.634 2.997-8.716 0 0-.764-3.54 3.704-4.52 0 0-.615-3.37 3.162-7H31.22c.87 1.033.61 2.085.408 2.575l-.122.16C30.923 2.177 29.774 1.176 28.05 0h-5.623c.34.467.756 1.203 1.043 2.277-.432-.217-.87-.425-1.308-.628-.117-.38-.383-1.08-.87-1.65h-1.1c.2.27.383.6.52 1.01-.57-.238-1.143-.467-1.72-.684-.03-.07-.09-.19-.167-.326h-5.223c-1.216 1.23-2.992 2.078-4.286 2.568C8.624 2.406 7.91 2.25 7.18 2.1c1.685-.637 2.958-1.51 3.7-2.1h-1.5c-.947.82-2.1 1.46-3.075 1.917-.088-.018-.17-.038-.26-.055-.8-.153-1.574-.305-2.326-.457C4.977 1.02 6.03.493 6.856 0H5.38c-.843.527-1.724.945-2.447 1.245C1.955 1.047 1.02.85.133.655.964.5 1.708.266 2.367 0H0v2.597c.516.034 1.372.098 2.48.206C2.01 3.287 1.208 3.886 0 4.48v1.026c1.752-.684 3.562-1.826 4.323-2.502.605.072 1.25.157 1.925.254C5.028 4.75 2.228 6.142.694 6.584.46 6.54.23 6.48 0 6.43V9.9c.254-.28.508-.57.76-.876l1.82-.21.836-.1-.036.057-.115.175c-.017.025-1.07 1.477-3.265 3.06v.926c1.327-.986 2.91-2.357 4.44-4.172l.035-.038.003-.005 2.595-.212-.116.165-.046.065c-.025.04-2.318 3.076-6.91 5.21v4.794c1.012-1.163 1.5-2.162 1.683-2.615l.888-.188C1.796 17.644.775 18.84 0 19.577v1.418c2.23-.066 4.602.203 6.438 1.263-.757.065-1.523.15-2.296.256-.66-.416-1.965-1.037-4.142-1.404v.804c.7.25 1.438.56 2.102.933-.698.13-1.4.29-2.102.46v.745c.51-.088 1.02-.173 1.52-.247l-.023.135c-.018.096-.335 1.703-1.497 3.252v1.087l.247-.208c.02-.016 1.846-1.563 2.77-4.378l.033-.1c.53-.067 1.053-.128 1.57-.18l-.04.14c-.04.142-.99 3.5-2.94 4.67L0 28.45v.246c.314-.03.6-.057.825-.074 2.17-.207 5.31-.41 8.192-.227-2.824.34-5.437.746-7.828 1.19l-1.132.22c-.02.008-.038.01-.058.013v1.9c.437-.638.762-1.18.945-1.51.713-.138 1.396-.26 2.05-.372C2.15 31.598.99 33.03 0 34.056v.824c2.295-1.81 3.854-4.275 4.422-5.272.68-.102 1.32-.188 1.924-.262-1.324 2.76-3.4 4.86-4.346 5.726-.682.066-1.35.14-2 .22v1.642c.442-.508.664-.973.692-1.073.07-.003.522-.048.695-.062-.312.918-.924 1.458-1.343 1.743L0 37.57v1.637c.365-.06.73-.12 1.1-.178-.332.675-.717 1.224-1.1 1.678v.57c1.047-.918 1.743-1.9 2.06-2.4.54-.09 1.075-.17 1.607-.25-.922 1.912-2.335 3.037-2.993 3.482-.198 0-.428-.006-.674-.012v2.88c.295-.24.6-.495.918-.78.096-.014.184-.03.28-.043l1.6-.252c-.475.69-1.297 1.643-2.62 2.503-.06-.015-.118-.033-.178-.05v.63c.046.01.083.02.132.03 1.76.325 3.473.513 4.952.624.443.064 1.107.143 1.978.21l-1.14.378-.996.332-.873.29c.787-.057 1.578-.054 2.28-.024.874.037 1.61.115 2.025.167-.253.076-.5.15-.737.225-.67.207-1.273.404-1.825.59-.298.1-.576.195-.84.29-2.393.84-3.463 1.382-3.463 1.382.63-.164 2.615-.71 4.95-1.355-.517.61-1.477 1.588-2.893 2.398-.43-.035-.843-.084-1.23-.156-1.956-.36-.946-1.893.072-3.045 0 0-1.936 1.167-1.698 2.598.283 1.713 4.3 1.514 4.3 1.514S1.6 55.16 7.16 55.75c1.67-.625 2.576-2.44 2.875-2.42.234.016.113.666-1.064 2.643.926.035 1.8.037 2.62.014 0 0 1.733-.73 3.264-3.27l.383-.015s-.527 2.014-1.895 3.195c.428-.018.835-.047 1.225-.082h.005-.002c-.603.363-1.117.7-1.557 1.01-.25.174-.476.338-.68.492-.72.55-1.162.97-1.395 1.217-.154.164-.222.252-.222.252.096-.088.214-.184.343-.283.248-.19.555-.398.91-.623.627-.174 2.003-.488 2.958-.234-.538.24-1.06.477-1.55.707-.39.182-.756.357-1.105.53-1.167.575-2.097 1.093-2.615 1.493.028-.344.135-.604.135-.604-.72.717-1.48 2.19.315 2.967.168-.08.537-.27 1.068-.638-.003 0-.005 0-.006-.002 1.83-1.186 2.75-2.688 3.087-3.355l1.493-.598c-.955 1.906-2.572 3.428-3.408 4.133l-.002.004c-.017.014-.038.03-.056.047l-.115.095c-.297.238-.69.533-.845.648 2.307.4 4.57.13 6.993-.486.127-.033.257-.068.384-.104.093-.023.187-.05.28-.076-.474.36-1.092.852-1.763 1.445-.273.242-.553.496-.834.768-.598.574-1.2 1.21-1.75 1.885-.156.193-.308.39-.454.588l-.01.008h.007c-.003 0-.004.003-.006.005-.174.236-.34.475-.493.717 0 0 .34-.344.94-.9.79-.305 2.478-.87 3.67-.723-.2.155-.39.306-.576.454-.372.295-.716.572-1.035.832-2.54 2.078-3.426 3.078-3.66 3.37-.126-.35-.148-.786-.07-1.312.02-.135.038-.27.07-.418-1.537 2.592.05 3.652 2.506 3.53.123-.106.297-.272.503-.5.14-.16.3-.347.467-.57.014-.017.027-.032.04-.05.003-.004.006-.008.008-.008.604-.83 1.555-2.426 1.734-4.43.48-.34.956-.678 1.424-1.006-.024.875-.243 2.87-1.575 4.887-.017.028-.03.054-.052.09-.007.01-.016.02-.02.03-.137.2-.278.387-.416.56-.283.36-.546.647-.717.823.22-.043.44-.094.663-.152.473-.12 1.112-.368 1.87-.71-.276.342-.562.752-.835 1.225-.024.043-.05.086-.073.13-.275.495-.53 1.058-.74 1.696 0 0 .558-.825 1.413-1.835.745-.363 1.963-.842 2.774-.576l-1.163 1.11-.734.703s-.012.012-.02.023c-.182.19-1.966 2.06-2.52 2.713-.164-.378-.177-.882.03-1.562.01-.027.01-.05.02-.082-.02.037-.037.072-.06.107-1.312 2.162.334 3.355 2.37 3.078.933-.126 2.016-.257 3.838-1.075-1.736 3.486-1.117 5.19-1.117 5.19.033-1.103.39-2.188.847-3.155.093-.195.19-.385.288-.568.688-.36 2.103-1.008 3.104-.834-.158.19-.315.377-.47.568-.366.447-.728.896-1.078 1.344-.233.3-.46.6-.687.896-.684.906-1.327 1.803-1.895 2.668 0 0 .875-.883 2.204-2.22.054.483.08 1.532-.403 2.733-.457.05-.903.053-1.315-.012 0 0 1.688.734 3.79.082 0 0-.46.445-.98 1.07h3.53l.018-.018c.002.005.002.01.002.017h.923c-.02-.408-.04-.74-.056-.96.39-.415.78-.84 1.177-1.26.07.75.1 1.51.106 2.22h.605c.06-1.285.04-2.39.018-3 .39-.416.782-.83 1.173-1.244.254 1.44.257 3.002.193 4.244h.518c.262-2.09.184-4.244.13-5.13l1.063-1.114c.354 2.244.134 4.81-.026 6.12l-.133.124H37.8c-.168-.3-.29-.45-.29-.45l1.114-1.007c.206.45.374.95.524 1.457h1.31c-.234-1.57-.65-2.57-.65-2.57l1.105-1.037c.404 1.068.616 2.39.727 3.607h.84c-.01-2.842-.705-4.553-.705-4.553l1.3-1.355c.833 1.526.808 4.22.69 5.907h3.577l-.003-.086s-.56-5.153-.94-6.925c0 0-.618-2.826-1.4-5.492-.597-2.033-2.92-3.62-3.99-3.822-1.706-.32-3.406-1.08-3.565-3.29.2.787.892 1.676 2.896 2.012 3.094.514 4.124 2.64 4.124 2.64s-.902-2.708-3.48-3.415c-2.533-.697-3.688-1.148-3.48-2.572.297-1.6 1.227-1.55 1.227-1.55s-.98 1.778 1.954 2.472c2.878.686 3.214 2.344 3.214 2.344s-1.253-11.655-.817-19.282c0 0-2.995-.93-4.605-4.15 0 0 .95 3.85 2.857 4.727 1.034.475-2.61.22-3.97-.686 0 0 2.706 2.782 2.48 5.677-.803-2.43-2.27-2.848-2.27-2.848s3.038 4.606-.538 6.702c0 0 2.07-2.396.327-4.248 0 0 .327 3.105-2.395 3.268-2.724.164-5.23-4.193-.326-8.115 0 0-1.963.654-2.835 1.633-.814.918-2.92 1.36-3.32.248-.008-.023-.01-.05-.017-.074-.003-.018-.01-.03-.012-.047-.03-.27.016-.627.07-.926.177-.782.91-3.786 2.323-6.32 1.24-2.218-.027-3.703-.724-4.298 1.593.254 2.77.088 2.77.088s.273 2.235-.415 4.038c-.686 1.807-1.975 3.52-2.06 5.498 0 0 1.202-2.92 2.49-4.123 1.29-1.2 1.03-2.06 1.03-2.06s.515 1.974-.602 3.35c-1.116 1.374-1.116 3.09-1.116 3.09s.766-1.685 1.46-2.233c1.204-.943 1.118-2.166 1.118-2.166.653 2.125 1.96 3.38 1.96 3.38-.382-.603-.653-2.017-.708-3.106s-.926-3.65-.926-3.65c1.09.11 2.778 2.18 2.778 2.18-1.09-5.067 2.015-2.78 2.015-2.78-.654-1.416-.757-2.912-.545-3.758.217-.87 1.416-2.56 1.09-.87-.328 1.687.707 3.757.707 3.757-.437-1.895.076-3.375.92-4.584 0 0-.474 3.458 1.975 5.458 2.447 2 2.125 4.38 2.125 4.38.814-2.014.207-3.172-.69-4.23l1.726-.045c-.887-.195-1.624-.387-2.265-.555-.257-.275-.517-.555-.765-.852 1.387-.043 2.373-.07 2.373-.07-1.247-.303-2.2-.588-2.997-.813-.16-.27-.29-.533-.39-.79 1.596-.062 2.78-.1 2.78-.1-1.276-.332-2.244-.65-3.05-.894-.035-.212-.056-.42-.06-.616 1.96-.105 3.106-.236 3.106-.236-1.2-.258-2.174-.574-3.016-.77.048-.24.107-.452.173-.642 2.01-.203 3.644-.357 3.644-.357-1.294-.222-2.29-.456-3.112-.626.29-.29.53-.55.72-.783 2.245-.104 4.16-.185 4.16-.185-1.46-.252-2.63-.503-3.61-.654.135-.276.23-.554.316-.862 2.093-.088 3.813-.172 3.813-.172-1.524-.254-2.69-.434-3.617-.568.016-.063.028-.117.045-.18.105-.406.2-.686.278-.908 2.12-.152 3.64-.213 3.64-.213-1.38-.182-2.512-.344-3.48-.477-.004-.19-.066-.4-.22-.745-.042-.094-.052-.184-.05-.27 2.682-.252 4.798-.358 4.798-.358-1.686-.226-2.947-.413-3.974-.536.438-.247.972-.468 1.41-.686 2.13-.254 3.714-.4 3.714-.4-1.056-.143-1.966-.27-2.784-.375.188-.37.174-.762.142-.99 2.03-.226 3.544-.347 3.544-.347-.832-.185-1.605-.322-2.325-.416.77-.36 1.473-.722 2.105-1.084.19-.11.377-.218.556-.328 2.4-1.477 3.767-3.035 4.485-4.983 1.1-2.975 3.303-4.293 4.95-4.88-1.706.04-3.564.723-4.368 1.654-2.397 2.78-6.318 1.415-6.646-1.144 0 0 1.143 1.908 3.974 1.58 0 0-2.558-.437-3.158-2.235 0 0 1.57 1.172 3.042 1.05 0 0-2.34-.84-2.115-2.41 0 0 1.288 1.664 3.105 1.472 1.89-.202 2.97-.903 4.592-.95 1.607-.05 2.69.422 4.145.475 5.708-.417 11.307-3.284 11.307-3.284 4.57-.1 7.294-1.947 8.9-4.01V1.35c-.05.072-.086.142-.135.215zM10.86 61.997c-.095-.037-.205-.06-.293-.1-.71-.322-.904-.855-.92-1.31l3.682-1.47c-.71 1.266-1.78 2.294-2.47 2.88zm2.176 8.888c.903-.666 1.812-1.324 2.713-1.975-.113.568-.46 1.725-1.44 2.893-.653-.1-1.076-.41-1.274-.918zm3.04.807c-.555.115-1.028.158-1.437.14.608-.62 1.584-1.837 1.75-3.384.41-.293.815-.584 1.22-.87-.117.8-.483 2.575-1.535 4.114zM40.34 80.25l-1.07 1.016c.618-2.568.598-5.822.563-7.03l.758-.782c.754 3.705-.25 6.796-.25 6.796zm-2.026-11.08c.443.215.92.42 1.368.668.075.613.235 2.174.096 3.238-.53.492-1.054.996-1.574 1.506.182-1.035.43-3.097.11-5.412zm-.22 6.862l.886-.916c.38 2.62.006 5.63-.128 6.545l-1.313 1.243c.59-2.485.588-5.594.555-6.87zm-12.544-61.9c-.016.023-1.7 2.046-4.04 2.63-.394.1-.804.16-1.23.16l-.34-.036-.486-.053c.007-.003.253-.08.622-.223.17-.064.365-.142.58-.233 1.022-.434 2.428-1.15 3.087-2.045 0 0 .52.04 1.167-.138.646-.18.828-.346.828-.346l-.188.284zm-9.51 19.684l-1.22.314s2.824-1.223 4.726-4.134l1.38-.683s-1.76 3.25-4.885 4.503zm4.68 2.69l-.035.015.01-.013.024-.002zm1.902 14.72c-.002.087-.025.478-.26.96-.04.08-.085.162-.136.244l-.003.004c-.035.057-.07.11-.11.168-.053.07-.108.14-.17.213l-.036.04c-.032.036-.064.07-.1.106-.073.077-.155.153-.244.228l-.07.06c-.048.036-.1.07-.15.108-.02.016-.042.03-.063.045-.093.065-.194.128-.3.19-.048.024-.088.052-.137.077-.072.037-.155.072-.233.107-.03.016-.06.03-.09.04l-.003.003c-.177.076-.364.148-.573.215l.084-.11c.003-.007.008-.01.012-.015l.035-.05c.024-.032.052-.075.08-.116l.017-.026.01-.012c.02-.03.04-.06.063-.098.137-.213.295-.5.438-.828.147-.342.278-.725.336-1.137l1.593-.43.01-.003v.02zm.282 3.1c-.006.005-.012.007-.02.01-.102-.034-.213-.067-.337-.1.126.024.245.054.357.09zM19.64 53.22c-.136.32-.31.653-.52.974l-.02.03c-.01.01-.017.024-.024.034-.023.035-.043.068-.067.1-.034.05-.066.096-.104.14-.006.01-.012.015-.018.022l-.008.008c-.024.03-.054.057-.077.088-.053.06-.104.12-.16.178-.033.033-.06.074-.096.107l-.27.05-.236.043-.567.105-.075.014s.017-.02.046-.06l.073-.1.034-.046c.003-.004.004-.008.008-.01l.05-.076c.07-.104.156-.236.25-.393.092-.152.188-.324.29-.52.25-.49.505-1.108.674-1.817l1.277-.266s-.138.645-.46 1.395zm1.01-2.534c-.745.154-1.52.3-2.29.434.76-.7 2.056-2.043 2.888-3.723.442.172.873.245 1.252.264-.348.768-.945 1.897-1.85 3.026zm-2.84.525c-.854.142-1.687.267-2.446.37.84-.656 2.574-2.16 3.612-4.086.443-.053.902-.11 1.366-.17-.16.384-.967 2.198-2.53 3.887zm-1.748-4.196c.652-.375 1.894-1.197 2.688-2.355.168.444.372.86.625 1.226.14.2.288.373.438.533-.698.13-2.02.365-3.75.594zm1.275-5.406c-.448.947-1.912 3.6-5.03 5.806-.774.063-1.585.112-2.416.147.837-.51 4.16-2.685 5.724-5.68.63-.096 1.204-.19 1.723-.272zm-.82-.508c.716-.514 1.412-1.186 2.033-1.868-.156.54-.255 1.137-.296 1.75-.397.028-.995.07-1.737.118zm1.717.768c.015.602.082 1.203.21 1.783-.583 1.222-1.426 2.423-3.047 3.452-.778.096-1.626.188-2.522.267.976-.63 3.81-2.623 5.36-5.502zm-2.294-.73l-2.128.142c2.15-1.407 3.58-3.875 3.916-4.497.575-.05 1.122-.102 1.643-.15-1.05 2.36-2.736 3.926-3.43 4.504zm-5.815-6.625s-.433.018-1.14.057c2.807-1.508 4.666-4.152 5.27-5.106.48.227.893.49 1.216.798-.385.902-2.575 3.8-5.345 4.25zm6.63-3.894l1.567-.476s-2.455 3.392-5.54 4.123l-.548.057s2.47-.772 4.52-3.705zm-6.166 4.438c.07-.01.453-.05.598-.068-.3 1.215-1.15 1.725-1.158 1.73 0 0-.655.207-.78.224.753-.325 1.305-1.536 1.34-1.886zM8.52 37.012s-.57.117-.62.133c.89-.55 1.266-1.602 1.353-2.01.068-.006.49-.035.627-.05-.23 1.32-1.35 1.92-1.36 1.927zm5.475-8.88l-1.527-.114c.03-.012 3.123-1.186 4.717-4.66.666.063 1.285.13 1.84.198l-.04.062c-.107.155-2.616 3.815-4.99 4.515zm-1.33-13.785c-.165.063-.325.122-.48.168l-.337-.1-.62-.184.37-.14c.02-.007 2.026-.69 3.764-2.556l.064-.048s.346.068 1.1-.004c.754-.07 1.087-.205 1.087-.205-.514.455-2.99 2.31-4.95 3.07zm5.512-1.823c.825-.07.955-.17.955-.17-.79.895-3.044 2.308-4.87 2.83-.08.023-.164.055-.242.075l-.155-.065-.73-.3.356-.107c.018-.006 1.942-.555 3.655-2.225l.05-.05s.154.084.98.01zm-8.284 1.53l-1.172-.198c.025-.01 2.53-1.03 4.398-3.035l.075-.06s.35.097.96.04c.793-.068 1.156-.254 1.156-.254-.11.11-2.76 2.678-5.417 3.507zm.102.99c.382.033.633.08.79.125-.868 1.86-2.003 3.065-2.755 3.723-.255 0-.516.005-.78.015C9.248 17.056 9.862 15.47 10 15.043zm2.152.808c.186.092.39.19.612.294-.785 1.357-1.684 2.282-2.34 2.842-.23-.02-.456-.04-.692-.05 1.31-1.197 2.03-2.306 2.42-3.086zm1.96.876c.192.076.387.152.59.23-.416.738-1.072 1.634-1.915 2.34-.232-.04-.472-.08-.717-.118 1.037-.912 1.67-1.79 2.043-2.452zm1.895.668c.227.068.457.132.69.193-.608.943-1.34 1.676-1.906 2.166-.213-.06-.433-.118-.662-.175.994-.914 1.56-1.667 1.877-2.184zm-.564 3.647c.15.067.296.138.423.218.033.022.06.047.092.067.503.352.804.774.96 1.075-.344-.038-.7-.073-1.065-.104-.174-.49-.56-.908-.875-1.18-.248-.215-.448-.346-.448-.346.353.05.647.15.914.27zm1.492-.55c-.182-.075-.37-.153-.577-.23 1.04-.943 1.677-1.74 2.062-2.32.27.038.542.065.813.088-.812 1.13-1.76 2.01-2.298 2.462zm1.846-3.977c-.138.042-.27.093-.41.127l-1.123-.246c.002-.003.022-.01.05-.02.335-.124 2.38-.925 4.02-2.456l.042-.04.06.005c.383.04 1.053-.213 1.654-.582l.445-.272-.26.454c-.428.745-2.29 2.36-4.477 3.032zm-2.81-.366l-1.03-.302.426-.13c.017-.005 1.894-.55 3.63-2.293l.044-.045s.38.077.99-.013 1.346-.484 1.346-.484c-.397.363-2.872 2.764-5.407 3.267zm3.617-4.672c1.423-.357 2.77-1.185 3.685-1.846.378-.276.67-.514.873-.683.156.075.306.145.463.222-.088.088-.174.18-.263.263-1.59 1.476-3.343 2.08-4.174 2.298-.206-.077-.4-.16-.585-.255zm3.41-2.875c-1.63 1.463-3.173 2.155-4.1 2.47-.198-.14-.374-.277-.54-.418 1.347-.39 2.605-1.166 3.464-1.785.352-.255.628-.477.823-.64.16.076.332.162.497.24l-.144.133zM21.41 7.96c-1.365 1.19-2.663 1.848-3.58 2.204-.152-.157-.297-.312-.435-.465 1.09-.446 2.08-1.065 2.774-1.56.387-.275.674-.502.843-.64.2.086.402.177.604.27-.067.062-.138.13-.207.19zm-1.68-.702c-1.04.877-2.028 1.47-2.855 1.872-.152-.16-.31-.317-.48-.465.765-.39 1.396-.822 1.814-1.142.327-.248.528-.43.557-.453l.394-.354c.272.108.538.215.814.33-.083.07-.165.144-.245.212zm-1.963-.69c-.084.08-.17.154-.255.232-.62.564-1.26 1.006-1.856 1.345-.255-.142-.54-.266-.872-.37.544-.305 1.005-.62 1.353-.875.4-.297.648-.517.68-.546l.394-.403c.293.11.577.213.875.33l-.318.287zM15.82 5.85c-.205.197-.41.376-.616.545-.567.468-1.133.842-1.663 1.136-.198-.022-.404-.045-.63-.056-.085-.005-.19-.008-.295-.01h-.076c.714-.31 2.077-1.695 2.596-2.252.323.108.64.213.973.33l-.29.31zm-4.804 1.63c-.354.01-.737.022-1.158.04l-.183.01c1.024-.377 2.67-2.01 3.49-2.954.3.092.598.18.905.28-.597.78-2.037 2.182-3.054 2.623zm.475 1.413c.042-.047.084-.09.126-.14l.035-.042 1.17-.08 1.08-.075-.166.23c-.005.007-.09.112-.235.28-.11.126-.26.29-.45.483-1.167 1.204-3.836 3.542-7.973 4.827l-.863.05c.038-.017 3.82-1.59 7.277-5.532zM7.55 15.06c.284-.02.54-.032.782-.04-.837 1.93-2 3.235-2.815 3.978-.334.028-.675.063-1.022.102 2.113-1.877 2.8-3.524 2.97-4.033.027-.004.058-.006.085-.008zm-.345 4.925c.336-.014.652-.017.95-.006.512.017.965.07 1.372.145.128.023.245.053.363.08 2.115.506 2.706 1.687 2.794 1.9-.26-.01-.52-.018-.787-.022l-.744-.05c-.68-1.36-2.665-1.786-3.88-1.92l-.074-.01c-.543-.056-.915-.055-.915-.055.325-.03.63-.05.923-.063zm4.877.516l-.197-.102c-.347-.173-.604-.27-.604-.27.205.013.397.038.583.067.363.06.685.15.973.258.203.077.393.163.562.255.188.104.355.218.504.333.596.458.895.957 1.006 1.18-.386-.026-.78-.05-1.185-.072-.15-.718-.99-1.294-1.643-1.647zm2.072 2.65c.583.025 1.144.06 1.676.096-.225.722-1.302 3.65-4.312 4.725l-1.348-.103.59-.297c.025-.01 2.386-1.242 3.394-4.42zm-2.8 5.813c.65-.016 1.15-.008 1.494.002l.253.068c-1.485 3.003-3.71 4.806-4.83 5.573-.74.043-1.648.098-2.654.168 3.006-1.792 5.173-4.938 5.737-5.81zm-5.293 6.39l.807-.066c-.35 1.223-1.278 1.864-1.84 2.168l-.676.082c1.33-.875 1.706-2.17 1.71-2.184zm1.756-.107l.64-.066c-.48 1.604-1.615 2.07-1.63 2.073-.002 0-.528.113-.642.12 1.086-.633 1.587-1.963 1.632-2.127zm-.674 2.858l1.57-.23c-.824 1.888-2.066 3.218-2.86 3.93-.753.052-1.45.097-2.067.138 1.667-1.1 2.988-3.213 3.357-3.838zm2.535-.368l1.64-.23c-.875 2.033-2.287 3.446-3.11 4.145-.682.048-1.346.09-1.98.132 2.088-1.553 3.14-3.423 3.45-4.046zm2.672-.375l1.592-.214.033-.004c-1.05 2.305-2.734 3.797-3.447 4.356l-1.862.123c2.198-1.718 3.334-3.606 3.683-4.26zm2.68-.333l.46-.05 1.213-.105c-1.112 2.496-2.854 4-3.423 4.442-.746.05-1.527.104-2.322.154 2.09-1.393 3.66-3.78 4.07-4.44zm.704-8.726l-.8-.095c.033-.01 3.437-1.418 5.07-4.514.66.096 1.214.19 1.63.265l-.08.107c-.112.148-2.762 3.605-5.82 4.24zm6.63-16.056c-.375-.048-.745-.113-1.105-.192 1.52-.323 2.823-1.12 3.672-1.753.307-.23.552-.435.73-.592l.802.415c-1.02 1.04-2.876 1.748-4.1 2.12zM26.99 1.788c1.62 1.088 2.35 3.39 1.853 3.844-.4-.305-.804-.603-1.218-.888-.06-.374-.36-2.063-1.1-3.19.16.08.315.156.466.234zm.636 4.67c-.488.27-.956.454-1.39.52-1.993.302-3.52-.033-3.908-.133-.437-.193-.9-.39-1.387-.592 2.702.2 4.81-.404 5.574-.667.505.364.867.66 1.112.872zM25.02.854c.338.444.94 1.434 1.147 2.94-.42-.26-.846-.514-1.278-.758-.125-.567-.47-1.878-1.138-2.72.447.18.865.36 1.267.538zm-.946 3.185c.514.29.975.566 1.38.828-1.662.838-4.015 1.02-5.363 1.045-.568-.226-1.167-.453-1.797-.683 2.795-.017 4.91-.805 5.78-1.19zM21.22 2.584c.627.288 1.206.57 1.737.847-1.677.98-4.04 1.376-5.4 1.53-.51-.18-1.043-.36-1.587-.537 2.704-.28 4.627-1.42 5.25-1.84zm-1.164-.513c-1.473 1.188-3.6 1.794-4.94 2.077-.7-.222-1.428-.438-2.182-.65 2.78-.46 4.75-1.728 5.335-2.146.627.24 1.224.48 1.786.718zM15.01.23c.703.22 1.376.442 2.014.668-1.39 1.266-3.526 2.012-4.888 2.384-.64-.174-1.297-.344-1.973-.51C12.733 2.06 14.493.675 15.01.23zM2.426 6.89c1.412-.4 4.438-2.065 5.457-3.385.498.08 1.005.17 1.52.263C8.416 5.084 6.288 6.7 4.52 7.192c-.677-.085-1.38-.184-2.093-.3zm3.827.5c2.375-.926 4.06-2.663 4.647-3.334.38.08.764.162 1.148.25-.798.99-2.24 2.565-4.035 3.24-.544-.04-1.137-.094-1.76-.157zm-4.985 7.353l-.937.084c.04-.02 3.984-1.843 7.634-6.154l.02-.023.036-.043 1.24-.102 1.354-.11-.16.232c-.03.044-3.07 4.08-9.187 6.116zm3.19.933l.04-.134c.386-.074.756-.145 1.102-.206-1.005 2.136-2.368 3.457-3.086 4.05-.265.047-.528.09-.8.143 2.17-2.053 2.717-3.77 2.742-3.854zm-2.04 4.89c6.07-.842 7.417 1.47 7.443 1.517-.5.01-1.007.026-1.52.05l-.152.005c-1.52-1.546-5.77-1.57-5.77-1.57zM4.207 28l-1.28.104.41-.365c.02-.02 1.857-1.682 2.656-4.45.562-.044 1.11-.078 1.654-.107-.24.655-1.547 3.977-3.44 4.816zm1.34-.064l.5-.387c.02-.015 1.84-1.476 2.753-4.418.564-.022 1.116-.035 1.655-.04-.284.886-1.26 3.387-3.594 4.725l-1.314.12zm2.24-.115l.572-.317c.023-.014 2.254-1.297 3.127-4.415.576 0 1.137.01 1.678.026-.253.902-1.23 3.63-4.033 4.76l-1.344-.053zm.03 1.364c.776-.074 1.475-.127 2.092-.164-1.94 3.495-4.17 5.25-4.976 5.804-.74.057-1.515.117-2.293.19 2.614-1.88 4.524-4.76 5.177-5.83zM1.47 37.682l-.864.086c1.398-.857 1.814-2.09 1.818-2.106l.857-.074c-.396 1.252-1.25 1.807-1.81 2.094zm1.898-.14l-.913.118c1.45-.87 1.726-1.952 1.813-2.143l.825-.092c-.424 1.15-1.157 1.8-1.725 2.118zM1.29 42.1c-.067.004-.16.004-.248.006 1.933-1.13 3.135-2.973 3.514-3.616.554-.084 1.097-.166 1.63-.244-.816 1.88-2.102 3.145-2.78 3.72-1.064.07-1.833.117-2.115.134zm-.766 4.394c.703-.42 2.213-1.412 3.296-2.753.614-.093 1.248-.192 1.895-.294-.57.814-1.706 2.14-3.668 3.382-.523-.1-1.032-.213-1.523-.334zm1.896.404c.704-.395 2.985-1.753 4.42-3.628.493-.078.988-.158 1.484-.234.01 0 .017-.004.026-.006l.14-.02c-.686.983-2.043 2.554-4.482 4.157-.528-.08-1.06-.17-1.588-.27zm1.942.32c.62-.324 3.58-1.952 5.335-4.4.643-.1 1.28-.202 1.905-.3-.68 1.105-2.206 3.176-4.97 4.992-.696-.078-1.468-.176-2.27-.29zm3.278.4l-.647-.066c.498-.27 4.027-2.254 5.88-5.234.537-.084 1.06-.166 1.558-.246-.45.902-1.85 3.273-5.063 5.504-.57.018-1.14.038-1.727.042zM3.6 52.524l.315-.076s2.45-1.057 3.878-2.7c.645-.18 1.3-.365 1.95-.542-.427.686-1.463 2.17-3.068 3.305l.288.015c-1.173.07-2.32.083-3.362 0zm5.856-.21c-.815.087-1.648.16-2.473.21.036-.02 2.65-1.588 3.972-3.66.505-.137.997-.274 1.47-.407-.318.606-1.275 2.268-2.97 3.856zm.55-.06c.938-.72 2.705-2.246 3.71-4.156.273-.076.536-.15.78-.22.24-.015.485-.028.734-.044-.237.52-1.186 2.432-3.058 4.15-.682.093-1.41.183-2.166.27zm4.88-.61c-.226.028-.446.056-.655.08-.475.056-1.014.126-1.59.2.797-.61 2.624-2.152 3.698-4.174.492-.04.994-.084 1.516-.137-.282.604-1.21 2.395-2.967 4.03zm.808 3.804l-.173.03-.55.1-.187.034.03-.035c.148-.17 1.143-1.342 1.606-3.016l1.434-.278s-.304 1.23-1.063 2.295c-.156.22-.335.426-.533.62-.032.032-.062.067-.096.097-.03.027-.055.06-.086.088l-.23.04-.15.026zm-2.932 6.92c2.35-1.598 3.386-3.71 3.71-4.508l1.79-.715c-1.103 2.48-3.14 4.447-4.065 5.256-.495.015-.973.003-1.435-.032zm3.788-.182c-.627.094-1.274.166-1.92.2 2.783-2.083 4.122-4.892 4.412-5.554l1.735-.695c-1.14 2.926-3.36 5.227-4.227 6.05zm2.37-.518c-.033.012-.078.027-.107.035-.547.16-1.18.3-1.848.416 2.94-2.325 4.237-5.515 4.51-6.263l1.726-.69c-1.216 3.343-3.672 5.904-4.28 6.5zm8.89 6.303l1.322-1.153c-.026 1.69-.26 5.174-1.582 7.705-.5.3-.996.588-1.488.863.38-.676 1.798-3.457 1.75-7.414zm-2.166 7.654c-.408.22-.806.428-1.195.623.415-.875 1.127-2.652 1.37-4.977.056-.518.087-1.06.087-1.63.428-.376.854-.75 1.274-1.116-.03 1.598-.26 4.83-1.536 7.1zm4.17-9.405l1.116-.976c.006 1.41-.123 5.357-1.572 8.152-.444.287-.892.568-1.344.846.533-1.054 1.814-4.02 1.8-8.023zm1.796-1.567c.27-.232.53-.46.77-.668.122 1.016.45 4.88-1.002 8.074-.49.337-.996.675-1.516 1.015.612-1.155 1.985-4.27 1.748-8.422zm-.258-1.16c-.533.395-1.104.8-1.694 1.21.462-1.083.924-2.622.974-4.464.36.07.75.116 1.192.13-.016.918-.133 2.025-.472 3.123zm-2.48 1.754c-.595.402-1.223.81-1.87 1.215.648-1.04 1.853-3.422 1.792-6.63.098-.063.184-.122.253-.167.218.13.454.236.703.332.017 1.232-.108 3.255-.877 5.25zm-2.503 1.607c-.48.297-.974.588-1.48.885.634-1.015 1.808-3.32 1.848-6.515.483-.33.906-.617 1.265-.86.018 1.235-.13 4.13-1.634 6.49zm.048-10.672c-.84 1.777-1.64 2.908-2.12 3.502-.618.238-1.252.482-1.866.715 2.44-2.31 3.49-5.274 3.803-6.325-.024.592 0 1.355.183 2.107zm-3.954 4.893c.145-.06.29-.12.44-.17.4-.14.814-.244 1.21-.322.486-.096.946-.15 1.325-.182.392-.032.697-.04.858-.042h.124l-1.072.682-.284.18-.088.055c-.462-.193-1.415-.127-2.154-.033-.562.07-1 .158-1 .158.202-.122.418-.228.64-.325zm2.308 1.494c.444-.308.863-.593 1.255-.86 0 1.186-.192 3.86-1.73 6.373-.567.322-1.15.643-1.747.957.68-.924 2.118-3.254 2.222-6.47zm-2.91 6.825c-.433.22-.85.424-1.25.615.724-1.115 1.77-3.176 1.885-5.87.52-.362 1.025-.71 1.505-1.042-.032 1.125-.325 3.725-2.14 6.297zm3.15-9.986c.76-.814 1.275-1.69 1.658-2.46.105.25.234.488.393.707.19.264.377.504.564.73-.61.238-1.555.61-2.614 1.022zm1.01-8.872l-1 .107-.278.03-.483.052s.25-.256.553-.66c.27-.36.572-.842.795-1.396.093-.228.176-.464.227-.71 0 0 .244-.023.577-.11.52-.136 1.26-.43 1.682-1.083 0 0-.032.24-.116.594-.21.88-.746 2.504-1.956 3.178zm-.393 3.66c-1.037 3.025-3.033 5.486-3.912 6.47-.878.333-1.66.62-2.24.82 2.838-2.388 4.188-5.73 4.513-6.636l1.64-.654zm-6.42 8.945c.295-.215.595-.428.905-.643.82-.256 2.068-.498 3.577-.31-.326.233-.645.46-.952.683-.273-.03-.907-.068-1.717.014-.64.066-1.39.217-2.163.514l.35-.257zm-3.26 2.59c.008-.006.014-.014.02-.02.41-.354.865-.734 1.358-1.13 1.02-.337 2.688-.78 3.787-.526-.397.295-.77.572-1.13.844-.015.01-.03.024-.046.036-.687-.05-2.34-.055-3.99.797zm2.59 5.182c.564-.775 1.714-2.666 1.793-5.264.475-.333.938-.657 1.392-.972-.047 1.1-.342 3.346-1.79 5.65-.494.223-.953.413-1.394.587zm1.583.918c.08-.084.163-.168.247-.252.232-.233.475-.462.724-.683.855-.383 2.04-.78 2.86-.512l-.822.787-.058.055c-.34-.025-1.718-.066-2.95.606zM17.59 76.87c.655-.555 1.51-1.29 2.497-2.148.033.63 0 1.95-.68 2.998-.834-.022-1.522-.264-1.818-.85zm2.135.845c.418-.584.972-1.715.894-3.455l1.068-.932c.05.89.026 2.715-.785 4.25-.398.077-.798.126-1.178.137zm1.486-.203c.41-.58 1.123-1.992 1.02-4.654.397-.348.806-.707 1.22-1.066.058 1.068.05 3.38-.86 5.307-.42.156-.892.3-1.38.412zm1.808-.592c.366-.768 1.136-2.754 1.02-5.646.42-.365.84-.732 1.26-1.104-.012.62-.055 1.465-.18 2.406-.168 1.258-.48 2.666-1.054 3.865-.36.176-.71.336-1.046.48zm.965 1.448c.008-.016.017-.03.025-.043.02-.008.036-.018.055-.027l-.08.07zm.34-.555c.18-.277.354-.533.52-.758l.16-.22c.794-.41 2.394-1.11 3.358-.702.006 0 .013.002.018.006l-.557.647c-.613-.06-2.07-.052-3.497 1.026zm1.865 5.756c-.408.116-.82.212-1.225.278.202-.402.804-1.777.57-3.262l.855-.857c.127.78.256 2.267-.2 3.84zm.34-.11c.292-.808.854-2.677.5-4.372.32-.316.647-.645.983-.98.12 1.06.218 3.07-.355 4.947-.364.147-.743.285-1.128.406zm2.994-2.458c-.054.412-.128.85-.222 1.303-.37.188-.79.387-1.245.584.26-.73.98-3.052.558-5.382.274-.275.552-.55.83-.828.163.815.34 2.3.08 4.322zm.47.9l-.172.132c-.048.025-.09.05-.142.076.04-.15.125-.502.214-.97l.015-.08c.025-.132.05-.27.073-.42.03-.19.06-.386.087-.6.14-1.112.21-2.534-.015-3.964.33-.328.66-.658.99-.982.194 1.305.43 3.912-.24 6.27l-.81.54zm2.42-1.605l-1.338.89.13-.13s1.1-3.277.41-6.527c.324-.318.646-.637.963-.947.204 1.304.5 4.117-.165 6.714zm2.342-2.123c.198-.99.604-3.697-.1-6.62.35-.34.683-.66.995-.956.324 1.36.63 3.66.103 6.5-.338.36-.67.72-1 1.076zm2.5-1.27c.35 2.558 0 5.448-.137 6.4l-1.222 1.155c.506-2.603.45-5.642.417-6.575.32-.334.634-.662.943-.98zm-1.723-13.978c.434.56.722 1.764.582 4.387-.037.176-.08.355-.123.533l-1.497 1.588c.484-1.057 1.195-3.225 1.038-6.508zM34.093 78.9l-1.24 1.09c.25-.862 1.035-3.962.335-7.007.27-.264.53-.52.788-.77.33 1.157.763 3.522.117 6.688zm-.58-17.07c-.432.345-.897.708-1.387 1.08.248-.677.48-1.546.568-2.558.31-.025.622-.066.93-.123-.09.392-.145.804-.145 1.233 0 .145.012.266.033.366zm-3.508-7.007c-.348-2.342 1.557-3.76 1.557-3.76-1.708 4.25 1.658 5.666 1.658 5.666-2.45.327-3.16-1.253-3.16-1.253-.326 1.633 1.145 2.67 1.145 2.67-6.65-.943-3.334-6.865-3.067-7.322l.017-.002c-.257 3.133 1.85 4 1.85 4zm-1.1-11.05c-.167 1.01-.57 1.72-1.008 2.204-.31.34-.63.574-.895.726-.33.19-.567.258-.567.258.412-.425.712-.862.933-1.297 1.082-2.135.15-4.264-.34-5.133-.644-.172-1.108-.52-1.108-.52 3.023 5.42-.602 7.083-1.506 7.403-.054.004-.114.01-.153.006l-.01.046c-.02.006-.034.008-.034.008s.012.004.033.006c-.106.688-.395 1.557-1.268 2.66-.564.152-1.187.3-1.842.443.657-.648 1.596-1.698 2.26-2.963.28-.04.448-.096.448-.096s-2.65-.096-3.813-2.068c-1.927-3.268-.662-6.07-.662-6.07-.38 2.398 1.424 4.435 1.424 4.435-.217-.49-1.42-5.08-.023-6.232 2.3-1.9 4.432 1.467 4.432 1.467-.755-1.25-.908-2.866-.934-3.702 1.604 1.956 3.638 2.805 5.33 3.16l-1.03 1.566c.436 1.545.49 2.75.332 3.694zM46.29 22.196c-.32.07-.613.175-.897.297-1.5.646-2.562 2.053-4.005 4.605-.106.188-.216.354-.325.52-.396.588-.81 1.023-1.22 1.342-1.758 1.352-3.467.59-3.467.59 4.03-.218 4.63-4.414 6.537-6.156.812-.742 1.87-1.02 2.584-1.13.47-.07.793-.07.793-.07zm-14.68-.29c3.418-1.32 2.833-2.93 2.833-2.93 1.024.878.956 2.424-1.905 3.42-3.37 1.17-5.324 4.444-5.324 4.444s.977-3.615 4.396-4.936zm-3.61 7.7c-.6 2.502.272 5.445.272 5.445C25.548 32 28 29.604 28 29.604zm1.317-.11c-.818 3.43.653 6.59.653 6.59-3.323-3.92-.653-6.59-.653-6.59zm1.71-.76c-1.198 5.39 1.416 9.093 1.416 9.093-5.01-4.248-1.416-9.093-1.416-9.093zm1.122 1.507c0 4.14 1.032 6.154 1.032 6.154-2.886-2.45-1.033-6.154-1.033-6.154zm1.666-4.724c.437-1.96 2.125-.98 2.888-2.232 0 0 .107 1.145-1.036 1.634 0 0 1.636-.108 2.56-1.688 0 0-.108 1.852-1.143 2.396 0 0 1.636-.218 2.832-1.688 1.198-1.472 1.688-2.233 3.76-2.07-2.234.655-2.452 4.25-4.956 5.94-2.295 1.542-5.617.92-4.904-2.292zM44.7 28.665c-.02.28-.052.586-.11.89-.06.325-.15.637-.282.9-.012.022-.02.052-.033.075-.112.203-.288.412-.485.623-.32.342-.713.69-1.1 1.044-.525.48-1.023.965-1.247 1.438 0 0 .437-1.8 1.47-2.943.055-.06.105-.13.158-.19.27-.33.518-.69.734-1.053.153-.26.295-.513.415-.747.224-.44.383-.803.45-.965l.04-.096s.003.04.005.102c.005.16.01.506-.016.92zm3.464-5.038c-.03.23-.125.503-.342.78-.31.396-.88.803-1.914 1.11l-.165.054c-.28.09-.536.18-.766.28-.814.343-1.33.75-1.744 1.284-.106.137-.207.283-.304.438-.235.375-.452.807-.697 1.307-.055.112-.11.228-.17.347l-.13.268c-.195.396-.404.742-.62 1.062-1.897 2.832-4.453 2.876-4.99.627 0 0 .793 1.072 2.178.652.89-.27 1.768-1.503 2.57-2.835.292-.483.572-.978.84-1.444.494-.855.942-1.62 1.33-2.038.178-.192.36-.37.542-.534.276-.25.562-.46.852-.653.162-.107.327-.21.496-.302.915-.51 1.907-.803 3.012-.96.016.1.055.304.022.56zm7.28-8.217c-3.42 3.71-8.4.78-8.4.78 5.03 1.418 8.4-.78 8.4-.78zM33.218 5.636c1.09-2.776 2.124-3.104 3.268-3.81 1.145-.71 4.52-.384 4.52-.384-.326.218-.816 1.254-.816 1.254s.79-.714 2.724-1.526C43.754.817 44.44.41 45.017 0h-2.67c-2.508.648-4.587.48-6.24 1.17-2.617 1.09-2.89 4.466-2.89 4.466zM26.245 35.05s-2.94-4.033-.763-10.512c0 0-4.41 4.685.763 10.512zM71.238 2.696c-1.395-.758-2.39-1.78-3.07-2.696h-.628c.67 1.474 1.572 1.933 1.572 1.933C67.46 1.87 65.555.845 64.248 0h-.577c3.634 3.69 7.568 2.696 7.568 2.696zM77.12 3.73c3.7.312 6.522-1.42 7.604-3.73h-1.227c-1.615 1.163-4.287 2.18-7.528 0h-.61c.62.675 1.594 1.486 3.013 1.987 0 0-2.085.067-4.403-1.987h-.498c.578.878 1.41 1.95 2.34 2.532 0 0-1.91-.455-3.96-2.532h-.43c.977 1.457 2.833 3.49 5.7 3.73zM42.48 3.35c-2.343.545-2.725 2.777-2.725 2.777s.98-1.688 2.562-1.962c.97-.168 2.015-.925 2.015-.925s-.654 1.852-2.233 2.56c-1.58.708-2.397 2.234-2.507 3.05 0 0 .928-1.524 2.725-2.287 1.797-.764 2.94-2.888 3.104-5.337 0 0-.996 1.67-2.942 2.124zM82 32.37s1.26.093 3.038.466v-.633c-.842-.036-1.842.005-3.037.166zm3.038 39.566v-.92c-3.463.195-5.777.664-5.777.664 2.212.227 4.136.285 5.778.256zm0-3.076v-.865c-2.365.104-4.094.455-4.094.455 1.59.332 2.955.43 4.094.41zm0 1.496V69.5c-2.475.095-4.094.45-4.094.45 1.59.328 2.955.427 4.094.406zm-4.484-41.303s1.846.094 4.484.457v-.615c-1.264-.04-2.742 0-4.484.158zm4.484-18.878v-.442c-1.172-.013-2.5.03-4.045.16 0 .002 1.645.04 4.045.282zm-6.195 3.573s2.644.06 6.195.492v-.577c-1.623-.116-3.654-.12-6.195.085zm1.42-1.92s1.98.045 4.775.357v-.505c-1.332-.045-2.902-.014-4.775.148zm2.85 36.68s.776.102 1.925.412v-.464c-.564-.032-1.197-.024-1.924.052zm1.925-22.183V26.1c-.518.017-1.06.04-1.64.086 0 0 .624.034 1.64.14zm0 24.015v-.443c-.557-.018-1.18.002-1.88.076 0 0 .765.094 1.88.367zm-2.86-12.096s1.216.162 2.86.69v-.708c-.766-.117-1.7-.14-2.86.018zm.108 2.934s1.162.154 2.752.656v-.662c-.746-.107-1.646-.13-2.752.006zm-5.19-25.516s3.49.078 7.942.65v-.62c-1.928-.21-4.506-.28-7.942-.03zm4.456 14.988s1.418.096 3.486.418v-.516c-1.006-.023-2.148 0-3.486.098zm1.056 14.925s1.008.137 2.43.56v-.616c-.678-.066-1.478-.062-2.43.055zm-.214-2.93s1.11.148 2.645.62v-.65c-.725-.09-1.594-.1-2.646.03zm.322 4.397s.957.127 2.322.525v-.576c-.656-.056-1.42-.052-2.322.052zm-.215-2.934s1.062.145 2.538.592v-.63c-.703-.083-1.54-.085-2.537.038z"/>
  <g>
    <linearGradient id="b" gradientUnits="userSpaceOnUse" x1="-101.919" y1="-229.481" x2="-186.962" y2="-229.481" gradientTransform="translate(272 272)">
      <stop offset=".5" stop-color="#6B113D"/>
      <stop offset="1" stop-color="#490724"/>
    </linearGradient>
    <path fill="url(#b)" d="M85.038 0h85.043v85.04H85.04z"/>
    <path fill="#FFF" d="M113.63 42.522V54.86h6.592v1.88h-9.707V42.523h3.115zM125.737 42.522v14.22h-3.115V42.52h3.115zM145.542 49.545c0 4.465-3.432 7.49-8.5 7.49-2.22 0-4.102-.63-5.47-1.795-1.53-1.305-2.427-3.318-2.427-5.496 0-2.31.945-4.238 2.738-5.604 1.703-1.303 3.5-1.887 5.785-1.887 4.733 0 7.874 2.92 7.874 7.292zm-13.12-.092c0 3.366 2.177 5.807 5.138 5.807 1.074 0 2.13-.38 2.957-1.053 1.168-.98 1.75-2.396 1.75-4.256 0-3.505-2.13-5.92-5.178-5.92-2.76 0-4.67 2.22-4.67 5.423zM148.905 42.522c3.566-.063 5.338-.105 5.338-.105 2.354 0 3.408.176 4.35.76 1.188.736 1.77 1.79 1.77 3.18 0 1.865-1.41 3.29-3.604 3.933 1.972 4.088 3.603 5.4 5.376 5.268l.068.11-.23.896c-.066.293-.67.45-1.744.45-1.71 0-2.96-.698-4.13-2.31-.624-.88-1.208-1.947-2.196-3.973-.402.022-.693.048-1.14.048-.25 0-.433 0-.74-.025v5.988h-3.118V42.523zm3.12 6.615c1.185.047 1.454.047 1.63.047 2.36 0 3.434-.83 3.434-2.643 0-1.1-.47-1.838-1.37-2.176-.445-.18-.963-.246-2.082-.246-.604 0-.72 0-1.613.023v4.997z"/>
    <path fill="#EEBB31" d="M96.33 62.366c1.188-.02 1.23-.02 2.192-.04.81-.024 1.453-.024 1.79-.024 2.034 0 3.02.22 3.804.893.666.607 1.053 1.45 1.053 2.395 0 1.475-.696 2.39-2.26 2.992 1.01.178 1.474.342 1.99.693.937.63 1.497 1.75 1.497 2.953 0 1.61-.918 3.02-2.393 3.715-1.053.477-2.082.604-4.654.604h-3.02v-14.18zm3.628 6.017c1.406 0 1.965-.137 2.504-.604.535-.474.805-1.1.805-1.92 0-.923-.338-1.618-.965-2.042-.467-.287-1.07-.424-2.145-.424-.607 0-.873 0-2.082.09v4.898h1.883zm.063 7.024c1.68 0 2.753-.266 3.472-.85.648-.535 1.006-1.293 1.006-2.15 0-1.12-.56-2.014-1.5-2.46-.65-.312-1.633-.446-3.063-.446h-1.86v5.886l1.946.02zM115.763 62.366l5.48 14.18h-1.906l-1.674-4.584h-6.176l-1.9 4.584h-1.793l6.582-14.18h1.387zm-1.012 1.84l-2.79 6.66h5.277l-2.486-6.66zM124.87 62.366l9.666 11.273-.316-11.274h1.57l-.025 14.117-.76.266-10.225-11.812.332 11.607h-1.563v-14.18h1.32zM142.32 62.366v14.18h-1.747v-14.18h1.746zm9.44 0l-7.272 6.303 7.61 7.876h-2.464l-7.207-7.584 7.072-6.596h2.26z"/>
    <path fill="#FFF" d="M101.782 41.928H96.98l-.157.137s-.37 1.197-.398 1.488c.045.572 2.744.05 2.744.05l-6.243 13.138h2.736l1.434-3.503h6.068l1.277 3.504h3.428l-6.088-14.812zm-4.03 9.7l2.478-6.177 2.28 6.177h-4.757z"/>
  </g>
</svg>
