<?xml version="1.0" encoding="UTF-8" standalone="no"?>
<!DOCTYPE svg PUBLIC "-//W3C//DTD SVG 1.1//EN" "http://www.w3.org/Graphics/SVG/1.1/DTD/svg11.dtd">
<svg
   xmlns:svg="http://www.w3.org/2000/svg"
   xmlns="http://www.w3.org/2000/svg"
   version="1.1"
   width="612.85297"
   height="90.27108"
   id="svg9669">
  <defs
     id="defs9671" />
  <path
     d="m 156.32601,0.91397442 0,89.32530958 3.3327,0 0.0675,-89.28962958 -3.40015,-0.0357 z"
     id="path40513"
     style="fill:#d71a20;fill-opacity:1;fill-rule:nonzero;stroke:none" />
  <path
     d="M 47.364885,9.9442255e-4 C 39.726575,-0.05550558 31.102297,2.2893844 21.610922,8.6284944 c -0.0013,0 2.845987,7.2161496 -3.098525,14.8225696 -0.0012,0 0.1555,0.0777 0.160962,0.076 5.7624,-3.19084 33.213816,-27.2747296 62.976486,1.52026 0,0 46.989135,-4.10212 34.526415,36.82839 0,0 16.61978,5.96385 14.60732,28.39092 0,0 0.19575,0.01 0.2012,0 0.69754,-1.4346 10.42896,-20.98763 -4.94959,-30.02521 0,10e-6 6.21815,-14.42256 -5.39223,-27.78281 -5.90445,-6.79796 -16.72337,-13.29052 -36.538435,-10.56583 -10e-4,0 -13.82475,-21.72222958 -36.73964,-21.89179957745 z M 0.00173333,0.83714442 c 0,-10e-6 -0.0039,0.18658998 0,0.19002998 2.60982997,1.37266 18.48122567,10.8966396 0.68409,22.2718596 L 11.711734,68.108814 c 0,-10e-6 15.456688,-11.83981 28.289121,-6.42313 8.18828,3.45747 10.3003,13.00552 8.7322,27.85884 0,0 0.23415,0.0137 0.24144,0 1.17654,-2.60772 16.35109,-29.22394 -6.76041,-37.28446 -4.36003,-1.52232 -10.50293,-1.99781 -21.528701,1.82431 l -10.2211,-27.7068 c 0,0 16.222225,-20.7705096 -10.46255067,-25.54042958 z M 96.579095,56.744834 c -8.67425,0.41194 -13.88301,6.3851 -13.883,6.3851 -13.67932,-12.61716 -25.75396,1.21622 -25.75396,1.21622 8.884,8.42176 4.58742,25.9205 4.58742,25.9205 -0.004,-0.01 0.19393,0.0125 0.2012,0 7.37602,-11.39415 6.47873,-22.61392 6.47874,-22.61393 7.38149,-2.12952 11.75024,5.51095 11.75024,5.51096 9.23186,-9.57253 18.4666,-10.18676 23.500505,-7.22125 12.49005,7.36217 8.20909,23.60209 8.20908,23.60209 0,0.005 0.23962,0.007 0.24144,0 10.45572,-19.14679 0.97775,-28.18172 -5.5532,-30.93736 -3.60104,-1.52103 -6.887065,-1.99964 -9.778465,-1.86233 z"
     id="path40517"
     style="fill:#d71a20;fill-opacity:1;fill-rule:nonzero;stroke:none" />
  <path
     d="m 494.98642,55.866004 c 0,-0.46124 0.3989,-0.37218 0.96485,-0.37218 l 1.33016,0 c 0.122,-10e-4 0.24655,-0.0125 0.59106,0.0136 0,0 1.24097,0.17604 2.28659,1.23473 l 15.36689,19.03417 10.18856,0.009 -15.6422,-20.0943 -3.01815,-3.53374 c -0.12312,-0.1841 -0.0771,-0.41335 0.46265,-0.95911 l 15.17415,-16.36851 1.40608,-1.42377 c 0.14696,-0.18276 0.51317,-0.44258 -0.30638,-0.44258 l -7.21252,0 -1.19143,0 c -1.19146,0 -1.1487,-0.0874 -1.86031,0.63315 l -13.91655,15.16053 c 0,0 -0.80421,1.0947 -1.82396,1.0947 l -1.74087,0 c -0.0956,-0.003 -0.25251,-0.002 -0.50577,-0.002 -0.15236,-0.0247 -0.45641,-1.5e-4 -0.52056,-0.37629 -0.0227,-0.14927 -0.0386,-0.24825 -0.0409,-0.65716 l 0,-34.91305 -9.45681,0 0,61.87666 9.45224,0 0,-19.48377 z m 96.57751,-23.86406 c -0.5758,0.0216 -5.86945,0.10283 -9.52214,1.39197 -0.90358,0.2339 -8.46517,3.15284 -11.64108,11.75192 -0.61382,1.40408 -2.48533,8.14743 -0.91764,15.16535 2.50844,9.8122 6.20087,12.54229 12.92225,15.0102 13.9757,3.67763 28.02685,-3.88192 29.8076,-15.49782 0,0 2.5457,-15.72002 -5.01819,-23.4019 0,0 -3.97684,-4.41972 -15.6308,-4.41972 z m -0.6162,7.50953 c 10.02915,0 11.3175,7.45633 11.3175,7.45633 1.34169,5.08543 0.60733,10.93182 0.60733,10.93182 -0.64433,7.6634 -6.56717,10.86141 -8.1612,11.01605 -3.79582,1.02611 -8.30898,-0.33159 -8.29862,-0.31475 -6.28012,-1.70899 -6.95538,-10.2181 -6.95538,-10.2181 -0.58827,-4.31884 -0.13642,-8.54494 0.64277,-11.1845 0.77111,-2.61189 2.0902,-3.97043 1.79981,-3.64394 3.4415,-4.1525 9.04779,-4.04291 9.04779,-4.04291 z m -131.70937,-7.45632 c 0,0 -12.46785,0.18364 -17.7764,9.56645 0,0 -9.90444,16.12462 4.68127,29.71895 2.18086,1.74202 5.67748,4.85026 16.81888,4.69013 2.37793,-0.12025 6.8206,0.5191 15.51556,-6.68056 l -2.84159,-4.04735 -0.30144,-0.38124 c -0.22423,-0.36887 -1.4775,-0.65105 -2.52238,-0.0355 l -2.5933,1.75992 c -1.44889,1.05698 -3.2454,1.52355 -7.49182,1.88402 -6.09511,0.29409 -10.45652,-1.37669 -13.25028,-7.07952 0,0 -0.9531,-1.58773 -0.9531,-6.66283 0.006,-0.22002 -0.042,-0.51866 0.46547,-0.51866 l 28.5841,0 0.5896,0 c 0.26783,0 0.47419,0.008 0.54083,-0.102 0.0801,-0.13115 0.093,-0.61256 0.093,-1.03733 0,-1.92377 0.0159,-4.12752 -0.10188,-5.77179 -0.13074,-1.95907 -0.66646,-4.19312 -1.87961,-6.64952 0,0 -3.68886,-8.65325 -17.57691,-8.65325 z m 1.81311,6.42344 c 9.33812,0.66377 9.28386,10.58536 9.08326,10.51955 l -21.49126,0 c 0,-11.63157 12.408,-10.51955 12.408,-10.51955 z m -67.73205,-23.14035 0,60.07624 10.04077,0 0,-21.55332 0,-0.29259 0.22607,-0.0134 12.04895,0 c 0.0445,-0.0275 1.68137,0.16841 6.65837,-0.83784 4.85915,-0.95761 11.1882,-6.11591 12.86905,-9.07882 1.11409,-1.96381 3.45238,-9.11249 2.03476,-13.91967 -0.85245,-3.28823 -1.70161,-5.22847 -3.276,-7.18149 0,0 -5.10276,-7.19922 -18.10887,-7.19922 l -22.49311,0 z m 10.1383,8.01932 12.81141,0 c 10.73875,0 10.82545,9.88563 10.82545,9.88563 0,8.16927 -5.42602,10.84316 -5.42602,10.84316 -2.84674,1.67612 -3.88585,1.84005 -4.39755,1.86187 -0.2844,0.012 -0.57118,0.006 -0.85557,0 l -12.95772,0 0,-22.59066 z m -65.50861,32.23179 c 0,-0.46124 0.3989,-0.37219 0.96485,-0.37219 l 1.33016,0 c 0.122,-10e-4 0.24655,-0.0125 0.59106,0.0136 0,0 1.24096,0.17604 2.28659,1.23474 l 15.36689,19.03417 10.18856,0.009 -15.64221,-20.0943 -3.01814,-3.53374 c -0.12313,-0.1841 -0.0771,-0.41335 0.46265,-0.9591 l 15.17414,-16.36851 1.40608,-1.42377 c 0.14697,-0.18277 0.51318,-0.44258 -0.30638,-0.44258 l -7.21253,0 -1.19142,0 c -1.19145,0 -1.14869,-0.0874 -1.8603,0.63314 l -13.91655,15.16098 c 0,0 -0.80422,1.09471 -1.82397,1.09471 l -1.74086,0 c -0.0956,-0.003 -0.25251,-0.001 -0.50577,-0.001 -0.15237,-0.0247 -0.45642,-1.5e-4 -0.52057,-0.37629 -0.0228,-0.14926 -0.0386,-0.24825 -0.0409,-0.65716 l 0,-34.91305 -9.45681,0 0,61.87666 9.45223,0 0,-19.48376 z m -47.27477,-10.41186 c 0,-0.0227 0,-0.0492 0.001,-0.079 -0.006,-0.097 0.0715,-0.38515 0.1742,-0.5818 0,0 2.57158,-4.99696 10.72175,-4.99696 0,0 8.61813,-0.22084 8.61813,6.43255 l 0,29.1949 9.00372,0 0,-28.14449 c 0,-0.81947 0.0437,-1.55068 0,-2.45839 0,0 -0.25875,-8.92795 -9.44425,-11.39577 -2.0654,-0.69232 -5.58971,-0.79977 -8.02471,-0.56785 0,0 -5.51917,0.22061 -10.95319,5.66911 l -0.20655,0.26229 c -0.20653,0.26227 -0.83763,0.3727 -0.83763,-0.55905 l 0,-1.77496 0,-0.8973 c -0.0297,-0.589 -0.2298,-1.94307 -1.74822,-1.94307 l -6.58072,0 0,41.80951 9.26979,0 0,-29.85263 z m 254.999,-13.11349 c -1.05808,0.0411 -2.20436,0.14145 -3.44446,0.31918 0,0 -5.70865,0.62023 -13.26359,6.5254 0,0 -1.09252,0.53528 0.0799,1.70228 l 3.20052,3.18291 c 0.30085,0.27301 1.11734,0.78316 2.95239,-0.29702 1.10343,-0.67998 5.261,-3.08554 8.40501,-3.94981 0,0 7.03075,-1.99122 9.81469,4.76992 0,0 0.62063,0.913 0.62063,5.87818 0.0297,1.06358 0.005,1.08166 -0.83784,1.08166 0,0 -19.8108,-1.03083 -25.15736,8.18778 0,0 -5.1042,6.41842 2.01701,13.5074 0,0 4.83654,4.87964 14.77081,2.22982 0,0 5.09208,-0.87519 8.76408,-4.53055 0.0204,-0.032 0.1439,-0.15647 0.17295,-0.1906 0.30516,-0.35793 1.09111,-0.77212 1.29888,0.031 0.0376,0.14571 0.0549,0.21796 0.0707,0.42113 0.0159,0.20779 0.0345,0.23035 0.0443,0.81568 0.006,1.05827 -0.1523,3.07207 2.7263,3.07207 l 4.36653,0 c 0.2688,0.003 0.74919,-0.0385 0.74919,-0.56298 l 0,-27.42708 c 0.0181,-0.94582 -0.53022,-4.60914 -0.84229,-5.35065 0.0136,0.0305 -1.61899,-4.04324 -5.84715,-6.94654 -0.19928,-0.0935 -3.25491,-2.75668 -10.66139,-2.46919 z m 7.33664,24.95346 c 0.2358,0.006 0.89989,3.2e-4 0.89989,0.60732 l 0,6.99974 c 0,0.23153 -1.29581,2.45805 -4.58374,3.55084 -1.97555,0.72334 -8.41935,2.81451 -11.33965,0.46547 0,0 -3.93215,-2.82281 -1.60474,-6.83571 0,0 0.92717,-2.10401 6.46777,-3.58189 0,0 4.00065,-1.20577 10.16047,-1.20577 z M 255.46589,32.059574 c -1.05807,0.0411 -2.20436,0.1459 -3.44446,0.32361 0,0 -5.70865,0.62024 -13.26359,6.5254 0,0 -1.09252,0.53528 0.0799,1.70228 l 3.20062,3.18291 c 0.30085,0.27301 1.1129,0.78316 2.94795,-0.29701 1.10343,-0.67999 5.26543,-3.08555 8.40944,-3.94982 0,0 7.03076,-1.99122 9.81471,4.76993 0,0 0.6206,0.913 0.6206,5.87817 0.0297,1.06358 -2.2e-4,1.07723 -0.84226,1.07723 0,0 -19.80635,-1.0264 -25.15294,8.19221 0,0 -5.10865,6.41842 2.0126,13.5074 0,0 4.84095,4.87522 14.77523,2.22538 0,0 5.09211,-0.87518 8.76407,-4.53054 0.0204,-0.0321 0.14368,-0.15647 0.17297,-0.19061 0.30515,-0.35791 1.09111,-0.76768 1.29887,0.0355 0.0376,0.14571 0.0504,0.21796 0.0665,0.42114 0.0159,0.20778 0.0387,0.22592 0.0487,0.81125 0.006,1.05826 -0.15229,3.07651 2.7263,3.07651 l 4.36653,0 c 0.26881,0.003 0.74918,-0.0385 0.74918,-0.563 l 0,-27.42708 c 0.0181,-0.94581 -0.53462,-4.60914 -0.84671,-5.35065 0.0136,0.0306 -1.61455,-4.04323 -5.84271,-6.94654 -0.19929,-0.0935 -3.25493,-2.7611 -10.6614,-2.47362 z m 7.33222,24.95345 c 0.2358,0.006 0.90431,0.005 0.90431,0.61176 l 0,6.9953 c 0,0.23153 -1.29581,2.46249 -4.58374,3.55528 -1.97552,0.72334 -8.42377,2.81452 -11.34407,0.46547 0,0 -3.92772,-2.82281 -1.60032,-6.83571 0,0 0.92718,-2.10844 6.46777,-3.58631 0,0 3.99622,-1.20579 10.15605,-1.20579 z m -77.09904,-41.56838 0,59.69944 22.16951,0 c 0,0 7.15511,0.40299 13.34339,-2.12341 0,0 5.98301,-2.43862 9.13202,-7.95727 0,0 2.65782,-5.16633 1.00184,-11.41945 -0.52532,-1.0882 -0.75401,-3.09138 -5.39496,-6.44561 -0.10725,-0.0592 -2.63515,-2.02092 -6.5786,-1.853 -0.12746,-0.005 -0.83578,0.0311 -0.9531,-0.40341 -0.006,0 -0.20494,-0.58302 0.85557,-0.89547 2.25519,-0.60641 4.89865,-1.98204 7.87303,-4.99157 0,0 2.93911,-2.52131 2.93911,-8.19222 0,0 -0.027,-4.16272 -2.47807,-8.45819 0,0 -1.98195,-3.89301 -9.40243,-5.90478 -0.49196,-0.13575 -4.46274,-1.05506 -31.93989,-1.05506 l -0.56742,0 z m 10.23584,7.9085 13.86647,0 c 6.21259,0 8.21439,3.83013 8.21439,3.83013 1.63791,2.87049 1.68897,5.42158 1.68897,5.42158 0,4.21877 -2.8327,6.28602 -2.8327,6.28602 -2.45253,2.03907 -6.09433,3.02605 -7.42973,3.04991 -1.53142,0.0851 -8.78414,0 -13.17493,0 -0.24421,-1.9e-4 -0.38219,0.0168 -0.38124,-0.0576 l 0.005,-0.16403 0,-18.29506 c 0.001,-0.0368 -0.0164,-0.0662 0.0444,-0.0709 z m -0.11088,25.72923 14.77524,0 c 6.61732,0 8.74635,3.88776 8.74635,3.88776 1.74462,2.91263 1.7998,5.50138 1.7998,5.50138 0,4.28076 -3.01889,6.37911 -3.01889,6.37911 -2.61231,2.06905 -6.49052,3.06546 -7.91294,3.08981 -1.63117,0.0864 -9.35365,0 -14.0305,0 -0.26011,-2e-4 -0.40877,0.0179 -0.40783,-0.0576 l 0,-0.16402 0,-18.56105 c 0.001,-0.0375 -0.0159,-0.0706 0.0488,-0.0753 z"
     id="path4152-9-1"
     style="fill:#000000;fill-opacity:1;fill-rule:evenodd;stroke:#000000;stroke-width:0.45214054px;stroke-linecap:butt;stroke-linejoin:round;stroke-opacity:1" />
</svg>
