<?xml version="1.0" encoding="UTF-8" standalone="no"?>
<svg
   xmlns:dc="http://purl.org/dc/elements/1.1/"
   xmlns:cc="http://creativecommons.org/ns#"
   xmlns:rdf="http://www.w3.org/1999/02/22-rdf-syntax-ns#"
   xmlns:svg="http://www.w3.org/2000/svg"
   xmlns="http://www.w3.org/2000/svg"
   xmlns:sodipodi="http://sodipodi.sourceforge.net/DTD/sodipodi-0.dtd"
   xmlns:inkscape="http://www.inkscape.org/namespaces/inkscape"
   inkscape:version="1.0 (4035a4fb49, 2020-05-01)"
   height="70"
   width="185"
   sodipodi:docname="santander.svg"
   xml:space="preserve"
   viewBox="0 0 185 70"
   y="0px"
   x="0px"
   id="Warstwa_1"
   version="1.1"><metadata
   id="metadata20"><rdf:RDF><cc:Work
       rdf:about=""><dc:format>image/svg+xml</dc:format><dc:type
         rdf:resource="http://purl.org/dc/dcmitype/StillImage" /><dc:title></dc:title></cc:Work></rdf:RDF></metadata><sodipodi:namedview
   inkscape:current-layer="Warstwa_1"
   inkscape:window-maximized="1"
   inkscape:window-y="-8"
   inkscape:window-x="-8"
   inkscape:cy="58.35834"
   inkscape:cx="133.46124"
   inkscape:zoom="6.4504558"
   showgrid="false"
   id="namedview18"
   inkscape:window-height="1017"
   inkscape:window-width="1920"
   inkscape:pageshadow="2"
   inkscape:pageopacity="0"
   guidetolerance="10"
   gridtolerance="10"
   objecttolerance="10"
   borderopacity="1"
   bordercolor="#666666"
   pagecolor="#ffffff" />
<style
   id="style2"
   type="text/css">
	.st0{fill-rule:evenodd;clip-rule:evenodd;fill:#EC0000;}
	.st1{filter:url(#Adobe_OpacityMaskFilter);}
	.st2{fill-rule:evenodd;clip-rule:evenodd;fill:#FFFFFF;}
	.st3{mask:url(#red-b_1_);fill-rule:evenodd;clip-rule:evenodd;fill:#FFFFFF;}
</style>
<rect
   x="0"
   id="rect4"
   height="70"
   width="185"
   class="st0"
   y="0" />
<defs
   id="defs9">
	<filter
   height="22.5"
   width="128.5"
   y="20"
   x="30"
   filterUnits="userSpaceOnUse"
   id="Adobe_OpacityMaskFilter">
		<feColorMatrix
   id="feColorMatrix6"
   values="1 0 0 0 0  0 1 0 0 0  0 0 1 0 0  0 0 0 1 0"
   type="matrix" />
	</filter>
</defs>
<mask
   id="red-b_1_"
   height="22.5"
   width="128.5"
   y="20"
   x="30"
   maskUnits="userSpaceOnUse">
	<g
   id="g12"
   class="st1">
		<rect
   x="0"
   height="70"
   width="185"
   class="st2"
   y="0"
   id="red-a_1_" />
	</g>
</mask>
<path
   id="path15"
   mask="url(#red-b_1_)"
   d="m 158.5,30.1 c 0,0.7 -0.1,1.6 -0.2,2.1 -0.6,-0.1 -1.2,-0.1 -1.8,-0.1 -0.6,0 -1.2,0 -1.8,0.1 v 9.5 h -2.4 v -11 c 1,-0.4 2.8,-0.6 4.2,-0.6 0.6,-0.1 1.5,0 2,0 M 142.1,35 h 5.5 c 0,-1.8 -1,-2.9 -2.7,-2.9 -1.7,0 -2.6,1 -2.8,2.9 m 7.8,2 h -7.8 c 0.3,2 1.5,2.9 3.6,2.9 1.3,0 2.7,-0.3 3.9,-0.8 -0.1,0.6 -0.2,1.5 -0.4,2.2 -1.1,0.5 -2.3,0.7 -3.6,0.7 -4.1,0 -6.1,-2.3 -6.1,-6.1 0,-3.3 1.5,-5.9 5.4,-5.9 3.5,0 5,2.3 5,5.1 0.2,0.7 0.1,1.3 0,1.9 m -14.7,2.2 v -6.9 c -0.6,-0.1 -1.3,-0.2 -2,-0.2 -2.4,0 -3.6,1.5 -3.6,4.1 0,2.3 0.9,3.9 3.1,3.9 1.1,0 1.9,-0.4 2.5,-0.9 m 2.5,-13 v 15.6 h -2.2 l -0.1,-1.4 c -0.6,1 -1.6,1.7 -3.2,1.7 -2.9,0 -4.9,-2.1 -4.9,-5.9 0,-3.9 2.1,-6.1 6.2,-6.1 0.6,0 1.2,0.1 1.8,0.2 v -3.7 c 0.7,-0.3 1.6,-0.4 2.4,-0.4 m -12.4,8.1 v 7.5 h -2.4 v -7.1 c 0,-1.8 -0.6,-2.6 -3,-2.6 -0.6,0 -1.3,0.1 -1.9,0.2 v 9.5 h -2.4 V 30.7 c 1.6,-0.4 3.3,-0.6 4.4,-0.6 3.9,-0.1 5.3,1.5 5.3,4.2 m -15,5 v -7 c -0.5,-0.1 -1.1,-0.1 -1.8,-0.1 -2.5,0 -3.7,1.6 -3.7,4.1 0,2.3 0.9,3.9 3.1,3.9 1,-0.1 1.7,-0.5 2.4,-0.9 m 2.4,-8.6 v 11.1 h -2.2 l -0.1,-1.3 c -0.6,1 -1.6,1.6 -3.1,1.6 -2.9,0 -4.9,-2.1 -4.9,-5.9 0,-3.9 2.1,-6.1 6.2,-6.1 1.5,-0.1 2.8,0.1 4.1,0.6 M 99.6,40 c 0.7,0 1.4,-0.1 1.9,-0.3 -0.1,0.7 -0.2,1.4 -0.3,2.1 -0.7,0.3 -1.4,0.4 -2.1,0.4 -2.4,0 -3.9,-1.1 -3.9,-3.8 V 26.6 c 0.8,-0.2 1.7,-0.4 2.4,-0.4 v 4.2 h 3.9 c 0,0.8 -0.1,1.4 -0.2,2.1 H 97.7 V 38 c 0,1.4 0.7,2 1.9,2 m -6.8,-5.7 v 7.5 h -2.4 v -7.1 c 0,-1.8 -0.6,-2.6 -3,-2.6 -0.6,0 -1.3,0.1 -1.9,0.2 v 9.5 H 83 V 30.7 c 1.6,-0.4 3.3,-0.6 4.4,-0.6 4.1,-0.1 5.4,1.5 5.4,4.2 m -14.9,5 v -7 c -0.5,-0.1 -1.1,-0.1 -1.8,-0.1 -2.5,0 -3.7,1.6 -3.7,4.1 0,2.3 0.9,3.9 3.1,3.9 1,-0.1 1.7,-0.5 2.4,-0.9 m 2.4,-8.6 V 41.8 H 78.1 L 78,40.5 c -0.6,1 -1.6,1.6 -3.1,1.6 C 72,42.1 70,40 70,36.2 c 0,-3.9 2.1,-6.1 6.2,-6.1 1.5,-0.1 2.8,0.1 4.1,0.6 M 58.1,41.3 c 0,-0.9 0.2,-1.5 0.4,-2.2 1.2,0.6 2.8,0.9 4.1,0.9 2.1,0 3.2,-0.7 3.2,-2 0,-1.3 -0.8,-1.9 -2.9,-2.8 l -1.1,-0.5 c -2.1,-0.9 -3.5,-2.1 -3.5,-4.5 0,-2.5 1.8,-4.2 5.4,-4.2 1.4,0 2.8,0.2 4.1,0.6 -0.1,0.9 -0.2,1.6 -0.4,2.2 -1.2,-0.4 -2.6,-0.6 -3.6,-0.6 -1.9,0 -2.8,0.8 -2.8,1.9 0,1.2 0.9,1.8 2.4,2.5 l 1.2,0.5 c 2.8,1.2 4,2.5 4,4.6 0,2.6 -1.9,4.3 -5.7,4.3 -2,0.1 -3.5,-0.1 -4.8,-0.7 M 47,30.3 C 47,29.5 46.7,28.7 46.3,28 L 42.6,21.6 C 42.3,21.1 42.1,20.6 42,20 l -0.2,0.3 c -0.9,1.6 -0.9,3.6 0,5.1 l 3,5.1 c 0.9,1.6 0.9,3.6 0,5.1 L 44.6,36 C 44.5,35.5 44.3,34.9 44,34.4 l -2.7,-4.7 -1.7,-3 c -0.3,-0.5 -0.5,-1 -0.6,-1.6 l -0.2,0.3 c -0.9,1.6 -0.9,3.5 0,5.1 v 0 l 3,5.2 c 0.9,1.6 0.9,3.6 0,5.1 l -0.2,0.3 C 41.5,40.6 41.3,40 41,39.5 l -3.7,-6.4 c -0.5,-0.9 -0.7,-1.8 -0.7,-2.8 -4,1 -6.7,3.2 -6.7,5.8 0,3.5 5.3,6.4 11.8,6.4 6.5,0 11.8,-2.9 11.8,-6.4 0.2,-2.5 -2.6,-4.7 -6.5,-5.8"
   class="st3" />
</svg>
